<svg width="269" height="91" viewBox="0 0 269 91" fill="none" xmlns="http://www.w3.org/2000/svg">
<path d="M147.982 49.7737C154.963 49.7737 159.699 44.4907 159.699 37.5473V24.1699H154.68V37.5473C154.68 41.9247 151.906 44.9435 148.001 44.9435C144.152 44.9435 141.322 41.8114 141.322 37.5473V24.1699H136.284V37.5473C136.284 44.4907 141.171 49.7737 147.982 49.7737Z" fill="#2D2D2D"/>
<path d="M168.905 42.0189H175.735L181.301 49.3585H187.547L181.226 41.0566C184.358 39.5849 186.66 36.6415 186.66 33.1132C186.66 27.7547 182.207 24.2075 176.811 24.2075H163.868V49.3585H168.905V42.0189ZM168.905 28.8113H176.811C179.622 28.8113 181.622 30.6037 181.622 33.0943C181.622 35.4717 179.566 37.3019 176.811 37.3019H168.905V28.8113Z" fill="#2D2D2D"/>
<path d="M212.038 42.3399C212.038 39.5663 210.095 37.4909 206.963 36.4531C209.34 35.3022 210.887 33.2456 210.887 30.7739C210.887 26.7927 207.359 24.189 202.152 24.189H189.435V49.3399H202.152C207.831 49.3399 212.038 46.5475 212.038 42.3399ZM194.454 28.4909H202.152C204.416 28.4909 206.076 29.7173 206.076 31.5475C206.076 33.2644 204.284 34.5286 202.152 34.5286H194.454V28.4909ZM194.454 38.6984H202.152C205.17 38.6984 206.963 39.8116 206.963 41.8682C206.963 43.8116 205.057 45.0003 202.152 45.0003H194.454V38.6984Z" fill="#2D2D2D"/>
<path d="M224.68 24.189L212.057 49.3399H217.623L220.604 43.4154H234.378L237.359 49.3399H242.963L230.284 24.189H224.68ZM222.925 38.8116L227.491 29.755L232.057 38.8116H222.925Z" fill="#2D2D2D"/>
<path d="M263.962 24.189V40.8682L248.321 24.189H244.302V49.3399H249.339V32.5663L264.924 49.3399H269V24.189H263.962Z" fill="#2D2D2D"/>
<path d="M148.019 75.3962H155.925C154.944 78.8113 152.019 80.9811 148.264 80.9811C143.321 80.9811 139.774 77.6037 139.774 72.7547C139.774 67.8679 143.189 64.4339 147.962 64.4339C151.642 64.4339 154.528 66.2263 155.868 69.132H160.793C159.208 63.4716 154.302 59.8867 148 59.8867C140.378 59.8867 134.868 65.3207 134.868 72.7358C134.868 80.0377 140.34 85.5282 147.679 85.5282C151.359 85.5282 154.491 84.1509 156.812 81.698L157.189 84.9999H161.623V71.283H148.038V75.3962H148.019Z" fill="#2D2D2D"/>
<path d="M187.434 69.1511C187.434 63.9246 183.076 60.4341 177.812 60.4341H165.17V85.019H170.095V77.8492H176.774L182.227 85.019H188.34L182.151 76.9058C185.17 75.4718 187.434 72.585 187.434 69.1511ZM177.812 73.2643H170.095V64.9812H177.812C180.547 64.9812 182.51 66.736 182.51 69.1511C182.51 71.4718 180.51 73.2643 177.812 73.2643Z" fill="#2D2D2D"/>
<path d="M202.321 59.9058C194.604 59.9058 188.83 65.3397 188.83 72.7548C188.83 80.0567 194.623 85.5473 202.321 85.5473C210.019 85.5473 215.774 80.3586 215.774 72.7548C215.774 65.0756 210 59.9058 202.321 59.9058ZM202.321 80.8492C197.34 80.8492 193.755 77.5096 193.755 72.7737C193.755 67.9246 197.302 64.6227 202.321 64.6227C207.415 64.6227 210.849 67.9246 210.849 72.7737C210.849 77.5096 207.415 80.8492 202.321 80.8492Z" fill="#2D2D2D"/>
<path d="M236.811 73.5093C236.811 77.7923 234.113 80.7357 230.283 80.7357C226.528 80.7357 223.754 77.6791 223.754 73.5093V60.4526H218.83V73.5093C218.83 80.2828 223.604 85.4526 230.283 85.4526C237.094 85.4526 241.736 80.2828 241.736 73.5093V60.4526H236.811V73.5093Z" fill="#2D2D2D"/>
<path d="M258.359 60.4341H245.793V85.019H250.718V77.8492H258.378C263.397 77.8492 268.076 74.0945 268.076 69.1322C268.057 63.9246 263.642 60.4341 258.359 60.4341ZM258.359 73.2643H250.718V64.9812H258.378C261.114 64.9812 263.152 66.736 263.152 69.1511C263.152 71.4718 261.076 73.2643 258.359 73.2643Z" fill="#2D2D2D"/>
<path d="M104.037 44.7547V88.9056H86.0751V85.0566C84.8486 85.9245 83.5279 86.717 82.1128 87.3962C77.8675 89.4528 73.0373 90.4905 67.7732 90.4905C62.3015 90.4905 57.1316 89.5283 52.4147 87.6226C47.6788 85.7169 43.4713 82.9434 39.9241 79.3962C36.3769 75.849 33.6033 71.5849 31.6599 66.7169C30.0373 62.6415 29.0939 58.2075 28.8297 53.5094C33.075 52.4151 36.6977 50.415 39.7165 47.5094C44.6033 42.7924 47.0939 36.3962 47.0939 28.4528V17.1698C49.0184 15.9999 51.075 14.9811 53.226 14.1131C58.1505 12.1509 63.5845 11.1509 69.3769 11.1509C75.9618 11.1509 82.075 12.4716 87.5656 15.0754C93.0562 17.6792 97.5845 21.1698 100.981 25.4339L102.509 27.3396L89.7166 40.283L87.8109 37.6792C85.7543 34.8679 83.1316 32.6037 79.9807 30.9245C76.8675 29.2641 73.3015 28.4339 69.3581 28.4339C65.2826 28.4339 61.6222 29.3962 58.4713 31.3018C55.3203 33.2075 52.8109 35.849 51.0184 39.1509C49.2071 42.4717 48.2826 46.3962 48.2826 50.7924C48.2826 55.2641 49.2071 59.2452 51.0184 62.6415C52.8297 66.0377 55.2826 68.6415 58.509 70.566C61.6788 72.4717 65.3958 73.4339 69.5467 73.4339C73.6788 73.4339 77.3769 72.5471 80.5845 70.8113C82.9052 69.5471 84.7166 67.9056 86.0751 65.849V61.0377H65.7165V44.7547H104.037Z" fill="#56B800"/>
<path d="M41.1887 0V28.4717C41.1887 34.7359 39.3208 39.717 35.6227 43.283C33.7359 45.0943 31.4906 46.4528 28.8868 47.3396C26.4151 48.1887 23.6415 48.6038 20.566 48.6038C14.283 48.6038 9.22642 46.8113 5.56604 43.2642C1.86793 39.717 0 34.7359 0 28.4528V0H11.7925V28.4717C11.7925 31.434 12.5472 33.6792 14.1132 35.3585C15.6415 37 17.7547 37.8113 20.5849 37.8113C23.4528 37.8113 25.6038 37 27.151 35.3585C28.7359 33.6792 29.4906 31.4151 29.4906 28.4717V0H41.1887Z" fill="#2D2D2D"/>
</svg>
