<svg width="30" height="30" viewBox="0 0 30 30" fill="none" xmlns="http://www.w3.org/2000/svg">
<g clip-path="url(#clip0_301_2)">
<mask id="mask0_301_2" style="mask-type:luminance" maskUnits="userSpaceOnUse" x="0" y="0" width="30" height="30">
<path d="M30 0H0V30H30V0Z" fill="white"/>
</mask>
<g mask="url(#mask0_301_2)">
<path fill-rule="evenodd" clip-rule="evenodd" d="M25.1002 1.37953C18.4931 -0.461144 11.5431 -0.461144 4.93594 1.37953C3.84891 1.68301 2.86486 2.30084 2.09582 3.1627C1.32677 4.02456 0.803631 5.09582 0.585945 6.25453C-0.194013 10.4348 -0.194013 14.7343 0.585945 18.9146C0.804196 20.0742 1.3284 21.1461 2.09879 22.0081C2.86917 22.87 3.85473 23.4873 4.94309 23.7896C8.93729 24.9035 13.0738 25.349 17.2002 25.1096C17.7346 25.0772 18.2607 25.2595 18.6717 25.6196L23.5359 29.9246C23.5794 29.9654 23.6333 29.9921 23.691 30.0013C23.7487 30.0104 23.8077 30.0018 23.8607 29.9763C23.9138 29.9508 23.9586 29.9097 23.9897 29.8579C24.0209 29.806 24.0369 29.7458 24.0359 29.6846V24.6896C24.0359 24.3296 24.2645 24.0146 24.6002 23.9246L25.1002 23.7896C26.1886 23.4873 27.1741 22.87 27.9445 22.0081C28.7149 21.1461 29.2391 20.0742 29.4574 18.9146C30.2373 14.7343 30.2373 10.4348 29.4574 6.25453C29.2391 5.09489 28.7149 4.02298 27.9445 3.16103C27.1741 2.29909 26.1886 1.68179 25.1002 1.37953ZM21.2788 5.57203C21.7288 5.57203 22.0931 5.95453 22.0931 6.42703V9.42703C22.0931 9.89953 21.7288 10.2821 21.2788 10.2821H18.4145C17.9574 10.2821 17.5931 10.6721 17.5931 11.1446V19.2896C17.5931 19.7621 17.2288 20.1446 16.7788 20.1446H13.5002C13.2843 20.1446 13.0772 20.0545 12.9244 19.8941C12.7717 19.7338 12.6859 19.5163 12.6859 19.2896V11.1446C12.6859 10.6721 12.3145 10.2821 11.8645 10.2821H9.00737C8.89984 10.2831 8.79319 10.2617 8.69357 10.2192C8.59395 10.1766 8.50334 10.1138 8.42696 10.0343C8.35059 9.95478 8.28997 9.86019 8.2486 9.75597C8.20724 9.65174 8.18594 9.53995 8.18595 9.42703V6.42703C8.18595 5.95453 8.54309 5.57203 9.00023 5.57203H21.2859H21.2788Z" fill="#56B800"/>
</g>
</g>
<defs>
<clipPath id="clip0_301_2">
<rect width="30" height="30" fill="white"/>
</clipPath>
</defs>
</svg>
